<?xml version="1.0" standalone="no"?>
<!DOCTYPE svg PUBLIC "-//W3C//DTD SVG 20010904//EN"
 "http://www.w3.org/TR/2001/REC-SVG-20010904/DTD/svg10.dtd">
<svg version="1.0" xmlns="http://www.w3.org/2000/svg"
 width="171.000000pt" height="171.000000pt" viewBox="0 0 171.000000 171.000000"
 preserveAspectRatio="xMidYMid meet">
<metadata>
Created by potrace 1.11, written by Peter Selinger 2001-2013
</metadata>
<g transform="translate(0.000000,171.000000) scale(0.100000,-0.100000)"
fill="#000000" stroke="none">
<path d="M666 1636 c-71 -37 -163 -76 -205 -88 -143 -38 -212 -82 -251 -159
-11 -20 -30 -77 -45 -128 -15 -54 -52 -144 -91 -218 l-66 -127 4 -71 c5 -71
14 -95 90 -235 20 -36 48 -107 63 -159 55 -194 97 -235 300 -290 45 -13 130
-49 195 -84 112 -60 117 -62 192 -62 75 0 80 2 195 61 65 34 171 78 237 98
107 34 123 42 166 85 44 44 52 60 86 167 20 66 64 172 98 237 59 113 61 121
61 192 0 71 -2 78 -62 194 -35 66 -74 158 -87 204 -33 114 -48 147 -85 190
-39 44 -88 68 -206 102 -50 15 -140 53 -204 87 -103 55 -122 62 -185 66 l-71
4 -129 -66z"/>
</g>
</svg>
